<svg xmlns="http://www.w3.org/2000/svg" viewBox="0 0 460.44 90.07"><defs><style>.cls-1{fill:#260e05;}</style></defs><title>Asset 1</title><g id="Layer_2" data-name="Layer 2"><g id="Layer_1-2" data-name="Layer 1"><path class="cls-1" d="M36.18,90.07a26.65,26.65,0,0,1-12.06-2.58,21.73,21.73,0,0,1-8.37-7.26L14,88.59H0V0H15.75V36.3a27.9,27.9,0,0,1,7.82-7.14q4.84-3.07,12.61-3.07a28.64,28.64,0,0,1,15.38,4.18,29.93,29.93,0,0,1,10.7,11.44A34,34,0,0,1,66.2,58.2a33.64,33.64,0,0,1-3.94,16.43A29.59,29.59,0,0,1,51.56,86,29,29,0,0,1,36.18,90.07ZM32.85,76.29a16.6,16.6,0,0,0,12.43-5.05q4.92-5,4.93-13A18.35,18.35,0,0,0,45.28,45a16.44,16.44,0,0,0-12.43-5.16A16.51,16.51,0,0,0,20.36,45,18.26,18.26,0,0,0,15.5,58.08q0,8,4.86,13.1A16.49,16.49,0,0,0,32.85,76.29Z"/><path class="cls-1" d="M109.88,90.07a33.23,33.23,0,0,1-16.36-3.94,28.45,28.45,0,0,1-11.2-11.07,32.73,32.73,0,0,1-4.06-16.49,34.8,34.8,0,0,1,4-16.86,29,29,0,0,1,11.07-11.5A32.53,32.53,0,0,1,110,26.09,31.51,31.51,0,0,1,125.88,30a28.42,28.42,0,0,1,10.77,10.77A30.28,30.28,0,0,1,140.52,56c0,.9,0,1.84-.06,2.83s-.11,2-.19,3.07H93.88q.5,7.14,5,11.2a15.63,15.63,0,0,0,10.89,4.06A14.37,14.37,0,0,0,117.82,75a13.4,13.4,0,0,0,4.86-5.6h16A29.19,29.19,0,0,1,133,79.92a28.11,28.11,0,0,1-9.84,7.44A31.07,31.07,0,0,1,109.88,90.07ZM110,38.88a16.81,16.81,0,0,0-10.21,3.26q-4.42,3.27-5.66,9.91h30.39a13.26,13.26,0,0,0-4.43-9.6A14.72,14.72,0,0,0,110,38.88Z"/><path class="cls-1" d="M183.46,90.07a33.23,33.23,0,0,1-16.36-3.94,28.45,28.45,0,0,1-11.2-11.07,32.83,32.83,0,0,1-4.06-16.49,34.8,34.8,0,0,1,4-16.86,29,29,0,0,1,11.07-11.5,32.54,32.54,0,0,1,16.68-4.12A31.45,31.45,0,0,1,199.46,30a28.42,28.42,0,0,1,10.77,10.77A30.28,30.28,0,0,1,214.1,56c0,.9,0,1.84-.06,2.83s-.1,2-.18,3.07H167.47c.33,4.76,2,8.49,5,11.2a15.65,15.65,0,0,0,10.89,4.06A14.37,14.37,0,0,0,191.4,75a13.4,13.4,0,0,0,4.86-5.6h16a29,29,0,0,1-5.73,10.52,28,28,0,0,1-9.84,7.44A31,31,0,0,1,183.46,90.07Zm.13-51.19a16.82,16.82,0,0,0-10.22,3.26q-4.43,3.27-5.65,9.91h30.39a13.33,13.33,0,0,0-4.43-9.6A14.73,14.73,0,0,0,183.59,38.88Z"/><path class="cls-1" d="M227.39,88.59V0h15.75V36.91A22.06,22.06,0,0,1,251.45,29a24.33,24.33,0,0,1,12-2.89q11.31,0,17.53,7.13t6.21,20.92V88.59H271.57v-33q0-7.87-3.14-12.06t-9.91-4.18a14.4,14.4,0,0,0-11,4.67q-4.37,4.68-4.37,13v31.5Z"/><path class="cls-1" d="M310.69,18.09a9.91,9.91,0,0,1-7.07-2.59A8.51,8.51,0,0,1,300.85,9a8.34,8.34,0,0,1,2.77-6.46,11.19,11.19,0,0,1,14.15,0A8.34,8.34,0,0,1,320.54,9a8.51,8.51,0,0,1-2.77,6.52A10,10,0,0,1,310.69,18.09Zm-7.87,70.5v-61h15.75v61Z"/><path class="cls-1" d="M351.55,88.59l-22.4-61h16.49l15.5,46.15,15.51-46.15h16.49l-22.52,61Z"/><path class="cls-1" d="M429.81,90.07a33.27,33.27,0,0,1-16.37-3.94,28.45,28.45,0,0,1-11.2-11.07,32.73,32.73,0,0,1-4.06-16.49,34.8,34.8,0,0,1,4-16.86,29.11,29.11,0,0,1,11.07-11.5,32.54,32.54,0,0,1,16.68-4.12A31.5,31.5,0,0,1,445.8,30a28.42,28.42,0,0,1,10.77,10.77A30.28,30.28,0,0,1,460.44,56c0,.9,0,1.84-.06,2.83s-.1,2-.18,3.07H413.81c.32,4.76,2,8.49,5,11.2a15.67,15.67,0,0,0,10.89,4.06A14.35,14.35,0,0,0,437.74,75a13.33,13.33,0,0,0,4.86-5.6h16a29.17,29.17,0,0,1-5.72,10.52A28.15,28.15,0,0,1,443,87.36,31,31,0,0,1,429.81,90.07Zm.12-51.19a16.77,16.77,0,0,0-10.21,3.26q-4.44,3.27-5.67,9.91h30.4a13.33,13.33,0,0,0-4.43-9.6A14.73,14.73,0,0,0,429.93,38.88Z"/></g></g></svg>